<svg xmlns="http://www.w3.org/2000/svg" xml:space="preserve" viewBox="0 0 256 256"><path d="M161.6 10.9c-3.7 1.4 5.6-7.6-97.4 94.7-58.2 57.8-54.4 53.5-54 60.1.1 2.1.6 4 1.3 5.3 1.2 2.3 16 17.6 18.2 18.8 1.9 1 3.8.6 7.1-1.7 8.8-5.7 18-5.6 25.8.3 6.1 4.6 9.3 11.7 8.7 19.3-.3 4-1.5 7.4-4 10.9-2.1 3.1-2.5 4.3-2.1 6.2S81 242 84 243.7c2.1 1.2 2.8 1.3 6.3 1.3 3.2 0 4.3-.2 6-1.1 2.3-1.2 36.4-34.8 37.6-37 1.1-2 .8-3.8-.8-5.4s-3.4-1.8-5.4-.8c-.7.4-8.9 8.3-18.3 17.7C97.9 230 92 235.6 91.1 235.8c-1.9.4-3.4-.6-9.5-6.8l-5.7-5.7 1.4-2.8c2.3-4.6 3.4-9.3 3.4-14.6 0-5.5-.8-8.8-3.3-13.8-3.2-6.5-7.8-11.1-14.6-14.3-4.9-2.4-8.2-3.1-13.6-3.1-4.7 0-8.6 1-13.5 3.2l-3.6 1.7-5.8-5.8c-6.3-6.2-7.3-7.6-6.9-9.6.2-.9 16.4-17.3 55.8-56.4 44.1-43.9 55.7-55.1 56.3-54.8.4.2 1.5.4 2.4.5 2.4.3 4.6-1.8 4.6-4.3 0-1-.2-2.1-.5-2.4-.3-.6 2.4-3.5 12.5-13.7 13.3-13.4 14.4-14.1 16.6-13 .6.3 3.8 3.2 7 6.5l6 6-1.5 3c-4.3 8.8-4.1 19.4.6 28.5 2.5 4.9 8.4 10.6 13.5 13 5.3 2.6 8.5 3.4 14.1 3.4 5.3 0 9-.8 13.7-2.9l3.1-1.5 5.8 5.8c6.3 6.2 7.3 7.7 6.9 9.6-.2.7-5.1 6-13.2 14.2-12.3 12.3-13 12.9-13.9 12.3-.5-.4-1.8-.6-2.7-.6-3.4 0-5.5 3.8-3.8 6.9.6 1 .5 1.3-.2 2.5-2.6 4.2 1.6 8.8 5.9 6.5.7-.4 8.9-8.4 18.3-17.9 19.4-19.5 19.4-19.4 19-25.5-.1-2.1-.6-4-1.3-5.3-1.2-2.3-16-17.6-18.2-18.8-1.8-1-3.8-.6-6.8 1.5-6.8 4.5-14.8 5.1-21.9 1.7-1.4-.6-3.9-2.4-5.5-3.9-7.8-7.4-9.2-18.8-3.3-28 2.2-3.4 2.6-5.3 1.7-7.2-1.2-2.2-16.4-17-18.8-18.2-2.4-1.4-7.5-1.8-10-.8"/><path d="M144.1 59.1c-1.5 1.6-1.7 3.4-.7 5.4.7 1.3 6.2 6.9 8.1 8.1 1.8 1.2 3.8.9 5.5-.6 1.2-1.1 1.4-1.7 1.4-3.3 0-1.9-.2-2.2-4.5-6.5s-4.6-4.5-6.5-4.5c-1.6 0-2.2.3-3.3 1.4M164 79c-1.5 1.5-1.8 3.3-.9 5.2.7 1.5 6.9 7.6 8.3 8.4 3.3 1.8 6.8-.3 6.8-4 0-1.9-.2-2.2-4.5-6.5-4.2-4.2-4.7-4.5-6.4-4.5-1.5-.1-2.2.2-3.3 1.4M184.9 97.8c-2 1-3 4.1-2 6.1.7 1.5 6.9 7.6 8.3 8.4 3 1.6 6.4.1 7-3.2.4-1.9-.6-3.4-5.2-7.8-3.5-3.4-4.4-4-5.7-4-.7.1-1.8.3-2.4.5M185.3 142.7c-11.1 2.1-20 6.8-27.7 14.6-6.8 6.7-11.1 14.4-13.7 23.9-1.1 4.1-1.2 5.3-1.2 12.8 0 7.6.1 8.7 1.2 12.9 7 25.9 32.3 42.4 58.4 38.2 11.5-1.9 21.1-7 29.3-15.5 5.7-5.9 9.2-11.7 11.7-19.2 7.1-21.3-.1-44.3-18.2-58.1-4.4-3.3-12.3-7.1-18-8.6-5.7-1.6-16.4-2-21.8-1m18.8 9.9c14.2 3.4 25.5 13.8 30.3 27.9 2.8 8.2 2.6 19.4-.6 28.1-2.1 5.7-4.8 9.8-10 14.9-5.1 5.1-9.3 7.9-14.9 10-8.7 3.1-19.9 3.4-28.1.6-19.1-6.5-31.1-25.3-28.8-44.9 1.2-10 5.2-18.2 12.2-25.2 10.6-10.7 25.3-14.8 39.9-11.4"/><path d="M192.3 165.9c-.5.2-1.3.9-1.8 1.4-.9.9-.9 1.8-1.1 11.3l-.1 10.3-10.3.1c-10.1.1-10.3.1-11.5 1.2-2.4 2.3-1.9 6 1.1 7.5 1.4.7 3 .8 11.2.8h9.5v9.5c0 5.3.2 10.1.4 10.7.7 2.7 4.7 3.8 7.1 2.1 1.8-1.4 2.2-3.5 2.2-13.2v-9l10.1-.1 10.1-.1 1.4-1.3c1.8-1.7 2.1-3.1 1.2-5.1-1.2-2.7-2.5-3-13.4-3H199v-9.1c0-9.4-.3-11.8-1.8-13.2-1-.9-3.6-1.3-4.9-.8"/></svg>